<?xml version="1.0" encoding="UTF-8"?>
<svg width="1440px" height="1024px" viewBox="0 0 1440 1024" version="1.1" xmlns="http://www.w3.org/2000/svg" xmlns:xlink="http://www.w3.org/1999/xlink" style="background: #FFFFFF;">
    <!-- Generator: Sketch 41 (35326) - http://www.bohemiancoding.com/sketch -->
    <title>05-editor-and-viewer</title>
    <desc>Created with Sketch.</desc>
    <defs>
        <rect id="path-1" x="0" y="0" width="46" height="38" rx="8"></rect>
        <mask id="mask-2" maskContentUnits="userSpaceOnUse" maskUnits="objectBoundingBox" x="0" y="0" width="46" height="38" fill="white">
            <use xlink:href="#path-1"></use>
        </mask>
    </defs>
    <g id="File-Manager" stroke="none" stroke-width="1" fill="none" fill-rule="evenodd">
        <g id="05-editor-and-viewer">
            <g id="navbar-buttons" transform="translate(39.000000, 78.000000)">
                <g id="button-back" stroke="#000000">
                    <g id="back-button">
                        <g id="back-arrow" transform="translate(31.213203, 32.213203) rotate(-135.000000) translate(-31.213203, -32.213203) translate(16.213203, 17.213203)" stroke-width="2" stroke-linecap="square">
                            <path d="M28.1860727,1.56589293 L9.39535755,1.56589293" id="Line"></path>
                            <path d="M28.1860727,3.13178585 L28.1860727,21.922501" id="Line"></path>
                            <path d="M1.15456965,28.5973959 L28.1860727,1.56589293" id="Line-Copy-2"></path>
                        </g>
                        <circle id="Oval" stroke-width="2" cx="32" cy="32" r="32"></circle>
                    </g>
                </g>
                <g id="button-upload-image" transform="translate(134.000000, 0.000000)">
                    <g>
                        <g id="Group" transform="translate(8.000000, 8.000000)">
                            <circle id="Oval" stroke="#000000" stroke-width="2" cx="24" cy="24" r="6.4"></circle>
                            <path d="M18,4 L14.34,8 L8,8 C5.8,8 4,9.8 4,12 L4,36 C4,38.2 5.8,40 8,40 L40,40 C42.2,40 44,38.2 44,36 L44,12 C44,9.8 42.2,8 40,8 L33.66,8 L30,4 L18,4 Z M24,34 C18.48,34 14,29.52 14,24 C14,18.48 18.48,14 24,14 C29.52,14 34,18.48 34,24 C34,29.52 29.52,34 24,34 Z" id="Shape" stroke="#000000" stroke-width="2"></path>
                            <polygon id="Shape" points="0 0 48 0 48 48 0 48"></polygon>
                        </g>
                        <circle id="Oval" stroke="#000000" stroke-width="2" cx="32" cy="32" r="32"></circle>
                    </g>
                </g>
                <g id="button-plugins" transform="translate(234.000000, 0.000000)">
                    <g>
                        <g id="Group" transform="translate(11.000000, 11.000000)">
                            <polygon id="Shape" points="0 0 43 0 43 43 0 43"></polygon>
                            <path d="M36.7291667,19.7083333 L34.0416667,19.7083333 L34.0416667,12.5416667 C34.0416667,10.5708333 32.4291667,8.95833333 30.4583333,8.95833333 L23.2916667,8.95833333 L23.2916667,6.27083333 C23.2916667,3.79833333 21.285,1.79166667 18.8125,1.79166667 C16.34,1.79166667 14.3333333,3.79833333 14.3333333,6.27083333 L14.3333333,8.95833333 L7.16666667,8.95833333 C5.19583333,8.95833333 3.60125,10.5708333 3.60125,12.5416667 L3.60125,19.35 L6.27083333,19.35 C8.94041667,19.35 11.1083333,21.5179167 11.1083333,24.1875 C11.1083333,26.8570833 8.94041667,29.025 6.27083333,29.025 L3.58333333,29.025 L3.58333333,35.8333333 C3.58333333,37.8041667 5.19583333,39.4166667 7.16666667,39.4166667 L13.975,39.4166667 L13.975,36.7291667 C13.975,34.0595833 16.1429167,31.8916667 18.8125,31.8916667 C21.4820833,31.8916667 23.65,34.0595833 23.65,36.7291667 L23.65,39.4166667 L30.4583333,39.4166667 C32.4291667,39.4166667 34.0416667,37.8041667 34.0416667,35.8333333 L34.0416667,28.6666667 L36.7291667,28.6666667 C39.2016667,28.6666667 41.2083333,26.66 41.2083333,24.1875 C41.2083333,21.715 39.2016667,19.7083333 36.7291667,19.7083333 Z" id="Shape" stroke="#000000" stroke-width="2"></path>
                        </g>
                        <circle id="Oval-Copy" stroke="#000000" stroke-width="2" cx="32" cy="32" r="32"></circle>
                    </g>
                </g>
                <g id="button-share" transform="translate(333.000000, 0.000000)">
                    <g>
                        <g id="Group" transform="translate(10.000000, 10.000000)">
                            <polygon id="Shape" points="0 0 44 0 44 44 0 44"></polygon>
                            <path d="M33.5,29.8133333 C32.1066667,29.8133333 30.86,30.3633333 29.9066667,31.225 L16.835,23.6166667 C16.9266667,23.195 17,22.7733333 17,22.3333333 C17,21.8933333 16.9266667,21.4716667 16.835,21.05 L29.76,13.515 C30.75,14.4316667 32.0516667,15 33.5,15 C36.5433333,15 39,12.5433333 39,9.5 C39,6.45666667 36.5433333,4 33.5,4 C30.4566667,4 28,6.45666667 28,9.5 C28,9.94 28.0733333,10.3616667 28.165,10.7833333 L15.24,18.3183333 C14.25,17.4016667 12.9483333,16.8333333 11.5,16.8333333 C8.45666667,16.8333333 6,19.29 6,22.3333333 C6,25.3766667 8.45666667,27.8333333 11.5,27.8333333 C12.9483333,27.8333333 14.25,27.265 15.24,26.3483333 L28.2933333,33.975 C28.2016667,34.36 28.1466667,34.7633333 28.1466667,35.1666667 C28.1466667,38.1183333 30.5483333,40.52 33.5,40.52 C36.4516667,40.52 38.8533333,38.1183333 38.8533333,35.1666667 C38.8533333,32.215 36.4516667,29.8133333 33.5,29.8133333 Z" id="Shape" stroke="#000000" stroke-width="2"></path>
                        </g>
                        <circle id="Oval-Copy-2" stroke="#000000" stroke-width="2" cx="32" cy="32" r="32"></circle>
                    </g>
                </g>
                <g id="dropdown-new" transform="translate(651.000000, 10.000000)">
                    <g id="ic_add_black_24px" transform="translate(0.000000, 4.000000)">
                        <g id="Group">
                            <polygon id="Shape" fill="#000000" points="28.5 19.5 19.5 19.5 19.5 28.5 16.5 28.5 16.5 19.5 7.5 19.5 7.5 16.5 16.5 16.5 16.5 7.5 19.5 7.5 19.5 16.5 28.5 16.5"></polygon>
                            <polygon id="Shape" points="0 0 36 0 36 36 0 36"></polygon>
                        </g>
                    </g>
                    <text id="New" font-family="AvenirNext-Regular, Avenir Next" font-size="33" font-weight="normal" fill="#000000">
                        <tspan x="38" y="33">New</tspan>
                    </text>
                </g>
                <g id="dropdown-manage" transform="translate(820.000000, 9.000000)">
                    <text id="Manage" font-family="AvenirNext-Regular, Avenir Next" font-size="33" font-weight="normal" fill="#000000">
                        <tspan x="0" y="33">Manage</tspan>
                    </text>
                    <g id="ic_keyboard_arrow_down_black_24px" transform="translate(120.000000, 0.000000)">
                        <g id="Group">
                            <polygon id="Shape" fill="#000000" points="14.51125 16.9388 23.5 25.7147846 32.48875 16.9388 35.25 19.6405769 23.5 31.1375 11.75 19.6405769"></polygon>
                            <polygon id="Shape" points="0 0.479038462 47 0.479038462 47 46.4667308 0 46.4667308"></polygon>
                        </g>
                    </g>
                </g>
                <g id="button-edit" transform="translate(1022.000000, 0.000000)">
                    <g>
                        <g id="ic_edit_black_24px" transform="translate(12.000000, 12.000000)">
                            <g id="Group">
                                <path d="M2.125,31.21875 L2.125,38.875 L9.78125,38.875 L32.3620833,16.2941667 L24.7058333,8.63791667 L2.125,31.21875 Z M38.2829167,10.3733333 C39.0791667,9.57708333 39.0791667,8.29083333 38.2829167,7.49458333 L33.5054167,2.71708333 C32.7091667,1.92083333 31.4229167,1.92083333 30.6266667,2.71708333 L26.8904167,6.45333333 L34.5466667,14.1095833 L38.2829167,10.3733333 Z" id="Shape" stroke="#000000" stroke-width="2"></path>
                                <polygon id="Shape" points="0 0 40 0 40 40 0 40"></polygon>
                            </g>
                        </g>
                        <path d="M32,64 C42.08766,64 51.0851108,59.3322598 56.9503286,52.0388032 C61.3607001,46.5544625 64,39.585452 64,32 C64,14.326888 49.673112,0 32,0 C14.326888,0 0,14.326888 0,32 C0,49.673112 14.326888,64 32,64 Z" id="Oval-Copy-2" stroke="#000000" stroke-width="2"></path>
                    </g>
                </g>
                <g id="button-split-screen" transform="translate(1123.000000, 0.000000)" stroke="#000000">
                    <path d="M32,64 C42.08766,64 51.0851108,59.3322598 56.9503286,52.0388032 C61.3607001,46.5544625 64,39.585452 64,32 C64,14.326888 49.673112,0 32,0 C14.326888,0 0,14.326888 0,32 C0,49.673112 14.326888,64 32,64 Z" id="Oval-Copy-2" stroke-width="2" fill="#E6E6E6"></path>
                    <g id="split-screen-icon" transform="translate(9.000000, 13.000000)">
                        <use id="Rectangle" mask="url(#mask-2)" stroke-width="4" xlink:href="#path-1"></use>
                        <path d="M1.32692308,12.372093 L44.6730769,12.372093" id="Line" stroke-width="2" stroke-linecap="square"></path>
                        <path d="M23,13.255814 L23,36.6744186" id="Line" stroke-width="2" stroke-linecap="square"></path>
                    </g>
                </g>
                <g id="button-view" transform="translate(1223.000000, 0.000000)">
                    <g>
                        <path d="M32,64 C42.08766,64 51.0851108,59.3322598 56.9503286,52.0388032 C61.3607001,46.5544625 64,39.585452 64,32 C64,14.326888 49.673112,0 32,0 C14.326888,0 0,14.326888 0,32 C0,49.673112 14.326888,64 32,64 Z" id="Oval-Copy-2" stroke="#000000" stroke-width="2"></path>
                        <g id="ic_remove_red_eye_black_24px" transform="translate(6.000000, 6.000000)">
                            <g id="Group">
                                <polygon id="Shape" points="0 0 53 0 53 53 0 53"></polygon>
                                <path d="M26.5,9.9375 C15.4583333,9.9375 6.02875,16.8054167 2.20833333,26.5 C6.02875,36.1945833 15.4583333,43.0625 26.5,43.0625 C37.5416667,43.0625 46.97125,36.1945833 50.7916667,26.5 C46.97125,16.8054167 37.5416667,9.9375 26.5,9.9375 Z M26.5,37.5416667 C20.405,37.5416667 15.4583333,32.595 15.4583333,26.5 C15.4583333,20.405 20.405,15.4583333 26.5,15.4583333 C32.595,15.4583333 37.5416667,20.405 37.5416667,26.5 C37.5416667,32.595 32.595,37.5416667 26.5,37.5416667 Z M26.5,19.875 C22.8341667,19.875 19.875,22.8341667 19.875,26.5 C19.875,30.1658333 22.8341667,33.125 26.5,33.125 C30.1658333,33.125 33.125,30.1658333 33.125,26.5 C33.125,22.8341667 30.1658333,19.875 26.5,19.875 Z" id="Shape" stroke="#000000" stroke-width="2"></path>
                            </g>
                        </g>
                    </g>
                </g>
                <g id="dropdown" transform="translate(1324.000000, 14.000000)" stroke="#000000">
                    <g>
                        <path d="M1.09995069,0.770833333 L36.1395232,0.770833333" id="Line" stroke-width="2" stroke-linecap="square"></path>
                        <path d="M1.09995069,7.70833333 L36.1395232,7.70833333" id="Line-Copy-2" stroke-width="2" stroke-linecap="square"></path>
                        <g id="ic_keyboard_arrow_down_black_24px" transform="translate(0.000000, 13.875000)" stroke-width="2">
                            <g id="Group">
                                <polygon id="Shape" points="4.90994898 0.00493333333 19 13.9853833 33.090051 0.00493333333 37.4183673 4.30895833 19 22.6239583 0.581632653 4.30895833"></polygon>
                            </g>
                        </g>
                    </g>
                </g>
                <g id="button-annotations" transform="translate(433.000000, 1.000000)">
                    <circle id="Oval-5" stroke="#000000" stroke-width="2" cx="32" cy="32" r="32"></circle>
                    <g id="Group-2" transform="translate(12.000000, 8.000000)">
                        <path d="M8.53846154,22.5008223 L8.53846154,28.4210526 L14.4671253,28.4210526 L31.9527309,10.9603198 L26.0240672,5.04008946 L8.53846154,22.5008223 Z M36.5375642,6.38200835 C37.1541453,5.76630439 37.1541453,4.77170568 36.5375642,4.15600172 L32.838078,0.461777969 C32.221497,-0.15392599 31.2254815,-0.15392599 30.6089005,0.461777969 L27.7157126,3.35085039 L33.6443763,9.27108077 L36.5375642,6.38200835 Z" id="Shape" stroke="#000000" stroke-width="2"></path>
                        <g id="ic_gesture_black_24px" transform="translate(0.000000, 24.631579)">
                            <g id="Group">
                                <path d="M5.62471154,8.43118421 C6.48251068,7.56236842 7.34030983,6.77921053 7.72019231,6.93828947 C8.33290598,7.18302632 7.72019231,8.19868421 7.3525641,8.79828947 C7.04620726,9.31223684 3.84784188,13.5584211 3.84784188,16.5197368 C3.84784188,18.0860526 4.43604701,19.3831579 5.48991453,20.1663158 C6.40898504,20.8515789 7.62215812,21.0596053 8.72504274,20.7292105 C10.03625,20.3498684 11.1146261,19.0160526 12.4748504,17.3396053 C13.9576175,15.5163158 15.9428098,13.1301316 17.474594,13.1301316 C19.4720406,13.1301316 19.4965491,14.3660526 19.6313462,15.3205263 C14.9992308,16.1036842 13.038547,19.8114474 13.038547,21.8917105 C13.038547,23.9719737 14.8031624,25.6728947 16.9721688,25.6728947 C18.9696154,25.6728947 22.2292521,24.0453947 22.7194231,18.2084211 L25.7339744,18.2084211 L25.7339744,15.1492105 L22.7071688,15.1492105 C22.5233547,13.1301316 21.371453,10.0097368 17.7686966,10.0097368 C15.011485,10.0097368 12.6464103,12.3469737 11.7150855,13.485 C11.0043376,14.3782895 9.19070513,16.5197368 8.90885684,16.8134211 C8.6025,17.1805263 8.07556624,17.8413158 7.54863248,17.8413158 C6.99719017,17.8413158 6.66632479,16.8256579 7.10747863,15.4918421 C7.53637821,14.1580263 8.82307692,11.9921053 9.37451923,11.1844737 C10.3303526,9.78947368 10.9675748,8.835 10.9675748,7.17078947 C10.9675748,4.51539474 8.95787393,3.67105263 7.89175214,3.67105263 C6.27418803,3.67105263 4.86494658,4.89473684 4.55858974,5.20065789 C4.1174359,5.64118421 3.74980769,6.00828947 3.48021368,6.33868421 L5.62471154,8.43118421 Z M17.0089316,22.6993421 C16.6290491,22.6993421 16.1021154,22.3811842 16.1021154,21.8182895 C16.1021154,21.0840789 16.9966774,19.1261842 19.6190919,18.4409211 C19.2514637,21.7326316 17.8667308,22.6993421 17.0089316,22.6993421 Z" id="Shape" stroke="#000000" stroke-width="2"></path>
                                <polygon id="Shape" points="0 0 29.4102564 0 29.4102564 29.3684211 0 29.3684211"></polygon>
                            </g>
                        </g>
                    </g>
                </g>
            </g>
            <path d="M0.965254367,212 L1449.68373,212" id="Line" stroke="#000000" stroke-width="2" stroke-linecap="square"></path>
            <path d="M-8,318 L1442,318" id="Line-Copy" stroke="#000000" stroke-width="2" stroke-linecap="square"></path>
            <path d="M106,318 L106,1097.5" id="Line" stroke="#000000" stroke-width="2" stroke-linecap="square"></path>
            <g id="text" transform="translate(123.000000, 338.000000)" stroke="#BFBFBF" stroke-width="16" stroke-linecap="square">
                <path d="M3.5,8 L596.027636,8" id="Line"></path>
                <path d="M3.5,105 L596.027636,105" id="Line-Copy-3"></path>
                <path d="M3.5,151 L425,151" id="Line-Copy-4"></path>
                <path d="M2.5,195 L424,195" id="Line-Copy-5"></path>
                <path d="M2.5,386 L598.053734,386" id="Line-Copy-6"></path>
                <path d="M2.5,429 L641.226272,429" id="Line-Copy-7"></path>
                <path d="M2.5,472 L128.707171,472" id="Line-Copy-8"></path>
                <path d="M2.5,520 L642.378309,520" id="Line-Copy-9"></path>
                <path d="M0.5,567 L200.965084,567" id="Line-Copy-10"></path>
            </g>
            <text id="1.-2.-3.-4.-5.-6.-7." font-family="AvenirNext-Regular, Avenir Next" font-size="33" font-weight="normal" fill="#000000">
                <tspan x="50.28" y="357">1.</tspan>
                <tspan x="78" y="404.1"></tspan>
                <tspan x="50.28" y="451.2">2.</tspan>
                <tspan x="50.28" y="498.3">3.</tspan>
                <tspan x="50.28" y="545.4">4.</tspan>
                <tspan x="50.28" y="592.5">5.</tspan>
                <tspan x="50.28" y="639.599999">6.</tspan>
                <tspan x="50.28" y="686.699999">7.</tspan>
                <tspan x="50.28" y="733.799999">8.</tspan>
                <tspan x="50.28" y="780.899999">9.</tspan>
                <tspan x="78" y="827.999999"></tspan>
                <tspan x="31.14" y="875.099999">10.</tspan>
                <tspan x="78" y="922.199999"></tspan>
                <tspan x="31.14" y="969.299999">11.</tspan>
                <tspan x="31.14" y="1016.4">12.</tspan>
                <tspan x="31.14" y="1063.5">13.</tspan>
                <tspan x="31.14" y="1110.6">14.</tspan>
                <tspan x="31.14" y="1157.7">15.</tspan>
                <tspan x="31.14" y="1204.8">16.</tspan>
                <tspan x="31.14" y="1251.9">17.</tspan>
            </text>
            <g id="rich-text" transform="translate(39.000000, 240.000000)">
                <g>
                    <g id="dropdown-heading">
                        <g id="ic_keyboard_arrow_down_black_24px" transform="translate(124.000000, 0.000000)">
                            <g id="Group">
                                <polygon id="Shape" fill="#000000" points="14.51125 16.9388 23.5 25.7147846 32.48875 16.9388 35.25 19.6405769 23.5 31.1375 11.75 19.6405769"></polygon>
                                <polygon id="Shape" points="0 0.479038462 47 0.479038462 47 46.4667308 0 46.4667308"></polygon>
                            </g>
                        </g>
                        <text id="Heading" font-family="AvenirNext-Regular, Avenir Next" font-size="33" font-weight="normal" fill="#000000">
                            <tspan x="0" y="34">Heading</tspan>
                        </text>
                    </g>
                    <g id="format-italic" transform="translate(513.000000, 4.000000)">
                        <g id="Group">
                            <polygon id="Shape" points="0 0 41 0 41 41 0 41"></polygon>
                            <polygon id="Shape" fill="#000000" points="17.0833333 6.83333333 17.0833333 11.9583333 20.85875 11.9583333 15.01625 25.625 10.25 25.625 10.25 30.75 23.9166667 30.75 23.9166667 25.625 20.14125 25.625 25.98375 11.9583333 30.75 11.9583333 30.75 6.83333333"></polygon>
                        </g>
                    </g>
                    <g id="format-bold" transform="translate(258.000000, 4.000000)">
                        <g id="Group">
                            <path d="M26.65,18.4329167 C28.3070833,17.2883333 29.46875,15.4091667 29.46875,13.6666667 C29.46875,9.80583333 26.4791667,6.83333333 22.6354167,6.83333333 L11.9583333,6.83333333 L11.9583333,30.75 L23.985,30.75 C27.5554167,30.75 30.3229167,27.8458333 30.3229167,24.2754167 C30.3229167,21.67875 28.85375,19.4579167 26.65,18.4329167 L26.65,18.4329167 Z M17.0833333,11.1041667 L22.2083333,11.1041667 C23.62625,11.1041667 24.7708333,12.24875 24.7708333,13.6666667 C24.7708333,15.0845833 23.62625,16.2291667 22.2083333,16.2291667 L17.0833333,16.2291667 L17.0833333,11.1041667 Z M23.0625,26.4791667 L17.0833333,26.4791667 L17.0833333,21.3541667 L23.0625,21.3541667 C24.4804167,21.3541667 25.625,22.49875 25.625,23.9166667 C25.625,25.3345833 24.4804167,26.4791667 23.0625,26.4791667 Z" id="Shape" fill="#000000"></path>
                            <polygon id="Shape" points="0 0 41 0 41 41 0 41"></polygon>
                        </g>
                    </g>
                    <g id="format-underline" transform="translate(386.000000, 4.000000)">
                        <g id="Group">
                            <polygon id="Shape" points="0 0 41 0 41 41 0 41"></polygon>
                            <path d="M20.5,29.0416667 C26.1545833,29.0416667 30.75,24.44625 30.75,18.7916667 L30.75,5.125 L26.4791667,5.125 L26.4791667,18.7916667 C26.4791667,22.08875 23.7970833,24.7708333 20.5,24.7708333 C17.2029167,24.7708333 14.5208333,22.08875 14.5208333,18.7916667 L14.5208333,5.125 L10.25,5.125 L10.25,18.7916667 C10.25,24.44625 14.8454167,29.0416667 20.5,29.0416667 Z M8.54166667,32.4583333 L8.54166667,35.875 L32.4583333,35.875 L32.4583333,32.4583333 L8.54166667,32.4583333 Z" id="Shape" fill="#000000"></path>
                        </g>
                    </g>
                    <g id="format-code" transform="translate(641.000000, 1.000000)">
                        <g id="Group">
                            <polygon id="Shape" points="0 0 47 0 47 47 0 47"></polygon>
                            <path d="M18.4083333,32.5083333 L9.4,23.5 L18.4083333,14.4916667 L15.6666667,11.75 L3.91666667,23.5 L15.6666667,35.25 L18.4083333,32.5083333 Z M28.5916667,32.5083333 L37.6,23.5 L28.5916667,14.4916667 L31.3333333,11.75 L43.0833333,23.5 L31.3333333,35.25 L28.5916667,32.5083333 L28.5916667,32.5083333 Z" id="Shape" fill="#000000"></path>
                        </g>
                    </g>
                    <g id="format-insert-link" transform="translate(775.000000, 1.000000)">
                        <g id="Group">
                            <polygon id="Shape" points="0 0 47 0 47 47 0 47"></polygon>
                            <path d="M7.6375,23.5 C7.6375,20.15125 10.3595833,17.4291667 13.7083333,17.4291667 L21.5416667,17.4291667 L21.5416667,13.7083333 L13.7083333,13.7083333 C8.30333333,13.7083333 3.91666667,18.095 3.91666667,23.5 C3.91666667,28.905 8.30333333,33.2916667 13.7083333,33.2916667 L21.5416667,33.2916667 L21.5416667,29.5708333 L13.7083333,29.5708333 C10.3595833,29.5708333 7.6375,26.84875 7.6375,23.5 Z M15.6666667,25.4583333 L31.3333333,25.4583333 L31.3333333,21.5416667 L15.6666667,21.5416667 L15.6666667,25.4583333 Z M33.2916667,13.7083333 L25.4583333,13.7083333 L25.4583333,17.4291667 L33.2916667,17.4291667 C36.6404167,17.4291667 39.3625,20.15125 39.3625,23.5 C39.3625,26.84875 36.6404167,29.5708333 33.2916667,29.5708333 L25.4583333,29.5708333 L25.4583333,33.2916667 L33.2916667,33.2916667 C38.6966667,33.2916667 43.0833333,28.905 43.0833333,23.5 C43.0833333,18.095 38.6966667,13.7083333 33.2916667,13.7083333 Z" id="Shape" fill="#000000"></path>
                        </g>
                    </g>
                    <g id="format-bullet-point" transform="translate(909.000000, 4.000000)">
                        <g id="Group">
                            <path d="M7,18.375 C5.5475,18.375 4.375,19.5475 4.375,21 C4.375,22.4525 5.5475,23.625 7,23.625 C8.4525,23.625 9.625,22.4525 9.625,21 C9.625,19.5475 8.4525,18.375 7,18.375 Z M7,7.875 C5.5475,7.875 4.375,9.0475 4.375,10.5 C4.375,11.9525 5.5475,13.125 7,13.125 C8.4525,13.125 9.625,11.9525 9.625,10.5 C9.625,9.0475 8.4525,7.875 7,7.875 Z M7,28.875 C5.5475,28.875 4.375,30.065 4.375,31.5 C4.375,32.935 5.565,34.125 7,34.125 C8.435,34.125 9.625,32.935 9.625,31.5 C9.625,30.065 8.4525,28.875 7,28.875 Z M12.25,33.25 L36.75,33.25 L36.75,29.75 L12.25,29.75 L12.25,33.25 Z M12.25,22.75 L36.75,22.75 L36.75,19.25 L12.25,19.25 L12.25,22.75 Z M12.25,8.75 L12.25,12.25 L36.75,12.25 L36.75,8.75 L12.25,8.75 Z" id="Shape" fill="#000000"></path>
                            <polygon id="Shape" points="0 0 42 0 42 42 0 42"></polygon>
                        </g>
                    </g>
                    <g id="dropdown-math" transform="translate(1037.000000, 1.000000)">
                        <g id="ic_keyboard_arrow_down_black_24px-copy" transform="translate(69.000000, 0.000000)">
                            <g id="Group">
                                <polygon id="Shape" fill="#000000" points="14.51125 16.9388 23.5 25.7147846 32.48875 16.9388 35.25 19.6405769 23.5 31.1375 11.75 19.6405769"></polygon>
                                <polygon id="Shape" points="0 0.479038462 47 0.479038462 47 46.4667308 0 46.4667308"></polygon>
                            </g>
                        </g>
                        <text id="Math" font-family="AvenirNext-Regular, Avenir Next" font-size="33" font-weight="normal" fill="#000000">
                            <tspan x="0" y="34">Math</tspan>
                        </text>
                    </g>
                    <g id="dropdown-more" transform="translate(1240.000000, 1.000000)">
                        <g id="ic_keyboard_arrow_down_black_24px-copy-2" transform="translate(75.000000, 0.000000)">
                            <g id="Group">
                                <polygon id="Shape" fill="#000000" points="14.51125 16.9388 23.5 25.7147846 32.48875 16.9388 35.25 19.6405769 23.5 31.1375 11.75 19.6405769"></polygon>
                                <polygon id="Shape" points="0 0.479038462 47 0.479038462 47 46.4667308 0 46.4667308"></polygon>
                            </g>
                        </g>
                        <text id="More" font-family="AvenirNext-Regular, Avenir Next" font-size="33" font-weight="normal" fill="#000000">
                            <tspan x="0" y="34">More</tspan>
                        </text>
                    </g>
                </g>
            </g>
            <path d="M777,319.5 L777,1109.41708" id="Line" stroke="#000000" stroke-width="2" stroke-linecap="square"></path>
            <text id="Lorem-ipsum-dolor-si" font-family="AvenirNext-DemiBold, Avenir Next" font-size="68" font-weight="500" fill="#000000">
                <tspan x="791" y="387">Lorem ipsum </tspan>
                <tspan x="1214.64" y="387" font-family="AvenirNext-Regular, Avenir Next" font-size="33" font-weight="normal"></tspan>
                <tspan x="791" y="482.1" font-family="AvenirNext-Regular, Avenir Next" font-size="33" font-weight="normal">dolor sit amet, consectetur adipiscing elit. </tspan>
                <tspan x="791" y="527.1" font-family="AvenirNext-Regular, Avenir Next" font-size="33" font-weight="normal">Nam maximus ullamcorper </tspan>
                <tspan x="791" y="574.2" font-family="AvenirNext-Regular, Avenir Next" font-size="33" font-weight="normal">arcu, sed efficitur ipsum. </tspan>
                <tspan x="791" y="621.3" font-family="AvenirNext-Regular, Avenir Next" font-size="33" font-weight="normal"></tspan>
                <tspan x="791" y="668.4" font-family="AvenirNext-Regular, Avenir Next" font-size="33" font-weight="normal"></tspan>
                <tspan x="791" y="715.5" font-family="AvenirNext-Regular, Avenir Next" font-size="33" font-weight="normal"></tspan>
                <tspan x="791" y="762.599999" font-family="AvenirNext-Regular, Avenir Next" font-size="33" font-weight="normal">Nam nec fermentum ante, non accum</tspan>
                <tspan x="791" y="809.699999" font-family="AvenirNext-Regular, Avenir Next" font-size="33" font-weight="normal">san diam. Vestibulum in tempus dolor, in </tspan>
                <tspan x="791" y="854.699999" font-family="AvenirNext-Regular, Avenir Next" font-size="33" font-weight="normal">congue risus. </tspan>
                <tspan x="791" y="901.799999" font-family="AvenirNext-Regular, Avenir Next" font-size="33" font-weight="normal">Phasellus vel tincidunt libero, et auctor </tspan>
                <tspan x="791" y="946.799999" font-family="AvenirNext-Regular, Avenir Next" font-size="33" font-weight="normal">dui. Cras dapibus massa </tspan>
            </text>
            <g id="button-headlines" transform="translate(1338.000000, 372.000000)">
                <g>
                    <circle id="Oval" stroke="#000000" stroke-width="2" fill="#FFFFFF" cx="32" cy="32" r="32"></circle>
                    <g id="ic_view_headline_black_24px" transform="translate(7.000000, 7.000000)">
                        <g id="Group">
                            <path d="M8.33333333,31.25 L41.6666667,31.25 L41.6666667,27.0833333 L8.33333333,27.0833333 L8.33333333,31.25 Z M8.33333333,39.5833333 L41.6666667,39.5833333 L41.6666667,35.4166667 L8.33333333,35.4166667 L8.33333333,39.5833333 Z M8.33333333,22.9166667 L41.6666667,22.9166667 L41.6666667,18.75 L8.33333333,18.75 L8.33333333,22.9166667 Z M8.33333333,10.4166667 L8.33333333,14.5833333 L41.6666667,14.5833333 L41.6666667,10.4166667 L8.33333333,10.4166667 Z" id="Shape" stroke="#000000" stroke-width="2"></path>
                            <polygon id="Shape" points="0 0 50 0 50 50 0 50"></polygon>
                        </g>
                    </g>
                </g>
            </g>
        </g>
    </g>
</svg>